Exact Audio Copy V0.99 prebeta 1 from 25. May 2007

EAC 抓取日志文件从19. 十一月 2010, 0:11

才旦卓玛 / 20世纪中华歌坛名人百集珍藏版

使用驱动器  ：BENQ    DVD-ROM 16X   Adapter: 0  ID: 1

读取模式     : 保护
使用精确流   : 是
废除音频缓冲 : 是
使用 C2 指针 : 否

读取偏移校正                   : 738
读取 Lead-In 和 Lead-Out       : 否
用静音填充抓取中丢失偏移的采样 : 是
去除首尾静音块                 : 否
已用接口                       : Win NT 及 2000 本地 Win32 接口

所用输出格式 : 内部 WAV 函数
样本格式     : 44.100 Hz;16 Bit;立体声


被抓轨 CD 的 TOC

     音轨 |   开始   |   长度   | 起始扇区 | 结尾扇区 
    --------------------------------------------------
       1  |  0:00.00 |  3:38.72 |       0  |   16421  
       2  |  3:38.72 |  1:25.43 |   16422  |   22839  
       3  |  5:04.40 |  2:18.70 |   22840  |   33259  
       4  |  7:23.35 |  2:38.72 |   33260  |   45181  
       5  | 10:02.32 |  2:57.60 |   45182  |   58516  
       6  | 13:00.17 |  1:19.00 |   58517  |   64441  
       7  | 14:19.17 |  2:55.60 |   64442  |   77626  
       8  | 17:15.02 |  1:30.18 |   77627  |   84394  
       9  | 18:45.20 |  3:01.47 |   84395  |   98016  
      10  | 21:46.67 |  2:57.28 |   98017  |  111319  
      11  | 24:44.20 |  2:17.52 |  111320  |  121646  
      12  | 27:01.72 |  2:36.40 |  121647  |  133386  
      13  | 29:38.37 |  3:09.00 |  133387  |  147561  
      14  | 32:47.37 |  3:10.53 |  147562  |  161864  
      15  | 35:58.15 |  1:49.47 |  161865  |  170086  
      16  | 37:47.62 |  3:42.40 |  170087  |  186776  
      17  | 41:30.27 |  2:16.60 |  186777  |  197036  
      18  | 43:47.12 |  2:37.60 |  197037  |  208871  


范围状态及错误

已选择范围

     文件名 E:\文件夹\20世纪中华歌坛名人百集珍藏版-才旦卓玛[lwg188原创]\才旦卓玛 - 20世纪中华歌坛名人百集珍藏版.wav

     峰值电平 75.9 %
     范围质量 100.0 %
     复制 CRC A8D4CA53
     复制成功

没有错误发生

状态报告结尾
